<?xml version="1.0" encoding="UTF-8"?>
<svg xmlns="http://www.w3.org/2000/svg" xmlns:xlink="http://www.w3.org/1999/xlink" viewBox="0 0 50 50" width="50px" height="50px">
<g id="surface11278563">
<path style=" stroke:none;fill-rule:nonzero;fill:rgb(100%,10.196079%,0%);fill-opacity:1;" d="M 25 2.34375 C 18.945312 2.34375 13.242188 4.6875 8.984375 8.984375 C 4.6875 13.242188 2.34375 18.945312 2.34375 25 C 2.34375 31.054688 4.6875 36.757812 8.984375 41.015625 C 13.28125 45.3125 18.945312 47.65625 25 47.65625 C 31.054688 47.65625 36.757812 45.3125 41.015625 41.015625 C 45.3125 36.71875 47.65625 31.054688 47.65625 25 C 47.65625 18.945312 45.3125 13.242188 41.015625 8.984375 C 36.757812 4.6875 31.054688 2.34375 25 2.34375 Z M 25 4.6875 C 30.429688 4.6875 35.507812 6.796875 39.375 10.625 C 43.242188 14.453125 45.3125 19.570312 45.3125 25 C 45.3125 30.429688 43.203125 35.507812 39.375 39.375 C 35.507812 43.203125 30.429688 45.3125 25 45.3125 C 19.570312 45.3125 14.492188 43.203125 10.625 39.375 C 6.757812 35.546875 4.6875 30.429688 4.6875 25 C 4.6875 19.570312 6.796875 14.492188 10.625 10.625 C 14.453125 6.757812 19.570312 4.6875 25 4.6875 Z M 19.75 18.554688 C 19.453125 18.554688 19.160156 18.671875 18.945312 18.90625 C 18.476562 19.375 18.476562 20.117188 18.945312 20.546875 L 23.359375 25 L 18.90625 29.414062 C 18.4375 29.882812 18.4375 30.625 18.90625 31.054688 C 19.140625 31.289062 19.453125 31.40625 19.726562 31.40625 C 20 31.40625 20.3125 31.289062 20.546875 31.054688 L 25 26.640625 L 29.414062 31.054688 C 29.648438 31.289062 29.960938 31.40625 30.234375 31.40625 C 30.507812 31.40625 30.820312 31.289062 31.054688 31.054688 C 31.523438 30.585938 31.523438 29.84375 31.054688 29.414062 L 26.640625 25 L 31.054688 20.585938 C 31.523438 20.117188 31.523438 19.375 31.09375 18.90625 C 30.625 18.4375 29.882812 18.4375 29.453125 18.90625 L 25 23.359375 L 20.585938 18.90625 C 20.351562 18.671875 20.050781 18.554688 19.75 18.554688 Z M 19.75 18.554688 "/>
</g>
</svg>
