<svg xmlns="http://www.w3.org/2000/svg" xmlns:xlink="http://www.w3.org/1999/xlink" width="358" height="123" viewBox="0 0 358 123">
  <defs>
    <filter id="k" x="-2.748" y="-55.089" width="116" height="214" filterUnits="userSpaceOnUse">
      <feOffset dy="11" input="SourceAlpha"/>
      <feGaussianBlur result="blur"/>
      <feFlood flood-opacity="0.439"/>
      <feComposite operator="in" in2="blur"/>
      <feComposite in="SourceGraphic"/>
    </filter>
    <clipPath id="clip-home_3">
      <rect width="358" height="123"/>
    </clipPath>
  </defs>
  <g id="home_3" data-name="home – 3" clip-path="url(#clip-home_3)">
    <rect width="358" height="123" fill="#fff"/>
    <g transform="matrix(1, 0, 0, 1, 0, 0)" filter="url(#k)">
      <text id="k-2" data-name="k" transform="translate(0.25 107.91)" fill="#1c0e0e" stroke="red" stroke-linecap="square" stroke-linejoin="round" stroke-width="3" font-size="148" font-family="SegoeUI-BoldItalic, Segoe UI" font-weight="700" font-style="italic"><tspan x="0" y="0">K</tspan></text>
    </g>
    <g id="_1643086" data-name="1643086" transform="translate(7.53 8.932)">
      <path id="Path_2" data-name="Path 2" d="M622.286-541.861c0,.385,1.9,1.845,3.628,2.778a60.02,60.02,0,0,0,9.405,3.752c2.127.649,2.531.913,2.217,1.379-.112.162-.672.122-2.038-.182a155.741,155.741,0,0,1-18.027-5.293c-1.993-.811-3.471-1.176-3.471-.852,0,.385,1.052,1.48,2.105,2.19a50.862,50.862,0,0,0,9.652,4.157c1.724.588,3.449,1.176,3.807,1.338.672.284.672.284.112.284a47.578,47.578,0,0,1-8.465-1.338c-6.494-1.643-6.987-1.724-6.987-1.2,0,.426,1.635,1.663,3.068,2.312a55.315,55.315,0,0,0,7.009,2.352,13.877,13.877,0,0,1,3.135,1.278,19.474,19.474,0,0,0,5.464,2.129,3.2,3.2,0,0,1,1.254.406c0,.1-.627.162-1.388.162a61.3,61.3,0,0,0-6.158.507c-.918.142-.963.629-.157,1.5.9.953,2.754,1.8,5.643,2.575.224.061.2.182-.067.568-.291.406-.314.588-.112.933.269.466,1.881,1.176,3.65,1.622.717.182,1.052.365,1.052.608a1.376,1.376,0,0,0,.515.771,14.949,14.949,0,0,0,3.65,1.663c.157,0,.425.223.627.507.425.608,1.59.913,3.449.913.761,0,1.388.081,1.388.2,0,.1.157.2.336.2a1.593,1.593,0,0,1,.806.426c.4.365.627.406,1.411.3,2.665-.385,2.665-.385,3.158.324.56.811,1.5.973,2.934.466l.963-.324.829.73a1.685,1.685,0,0,0,1.859.629,5.112,5.112,0,0,1,3.314.264c.806.324,1.232.629,1.411,1.054a1.549,1.549,0,0,0,.761.71,4.494,4.494,0,0,1,1.1.608c.806.608,1.142.608,1.59-.02.627-.872,1.142-.649,1.59.649.336,1.014.694,1.44,2.4,2.981,1.9,1.744,1.993,1.845,1.859,2.535a4.417,4.417,0,0,0,.2,1.724c.358,1.1.291,1.359-.627,2.129-.694.588-.717.933-.134,1.744a2.75,2.75,0,0,1,.448,1.379,3.091,3.091,0,0,0,1.142,2.454c.761.466.985.406,1.03-.345.067-.831.761-1.359,1.859-1.359a1.477,1.477,0,0,1,1.657,1.663l.022.852-2.127,1.2c-1.164.629-3.807,1.926-5.867,2.839-2.553,1.136-3.74,1.764-3.74,2.008-.022.466.336.629.873.365.358-.162.537-.122.918.223a2.69,2.69,0,0,0,2.531.081c.425-.162.425-.162.067.3a2.058,2.058,0,0,0-.381.953c0,.385.112.466.649.466.47,0,.672.122.761.426.112.385.246.426.941.3a9.393,9.393,0,0,0,1.1-.243c.157-.061.4.142.537.426.2.385.425.507.985.507a2.353,2.353,0,0,1,1.187.324,1.81,1.81,0,0,0,1.3.182c.784-.122.829-.1.829.385,0,.568.739,1.136,1.5,1.136.269,0,.56.081.627.2a1.033,1.033,0,0,0,.694.2c.806,0,.672.264-.717,1.217-2.441,1.724-2.642,2.393-1.165,4.035a4.943,4.943,0,0,0,1.321,1.136,2.392,2.392,0,0,0,1.926-.831c.179-.406-.112-.608-.426-.324-.336.3-1.456.324-1.635.041-.291-.426,1.478-2.433,2.15-2.433.224,0,.6.324.873.71s.582.71.694.71c.4,0,.47-.588.134-1.217-.336-.608-.336-.608.246-.608,1.052,0,1.321.284,1.008,1.034-.358.872-.224.953.47.324.739-.669.739-1.2,0-2.089l-.582-.689h1.3a5.215,5.215,0,0,0,1.657-.2c.246-.142.358-.081.448.264a1.543,1.543,0,0,0,.784.75,5.5,5.5,0,0,1,1.052.669c.515.446,1.165.466.985.02-.112-.284-.022-.3.694-.2,1.814.264,1.747.284,1.814-.588a2.557,2.557,0,0,1,.336-1.1c.224-.223.314-.061.515.913l.246,1.2.314-.649c.313-.588.358-.608.873-.345a4.291,4.291,0,0,0,1.3.284c.672,0,.717.041.493.406a2.121,2.121,0,0,1-.963.689l-.717.284.672.02a2.984,2.984,0,0,0,2.419-1.359c.246-.548.291-.568.941-.324a7.259,7.259,0,0,0,1.836.284c1.075,0,1.187-.041,1.321-.507a.612.612,0,0,1,.515-.507,6.906,6.906,0,0,0,1.209-.223c.6-.142.829-.3.829-.608,0-.324.134-.385.761-.345a2.029,2.029,0,0,0,1.1-.2c.246-.2.381-.182.6.061.4.426,1.12.385,1.12-.061a2.986,2.986,0,0,0-.806-1.217c-.426-.466-.694-.852-.56-.852a.465.465,0,0,1,.358.2,3.747,3.747,0,0,0,2.217.081c.9-.3.314-.852-2.419-2.271-3.762-1.926-11.264-6.226-13.347-7.625a7.113,7.113,0,0,1-2.508-2.474c-.963-1.521-1.03-1.967-.381-2.373a2.535,2.535,0,0,0,.761-1.1c.246-.629.4-.75.829-.71a9.757,9.757,0,0,0,1.12.061,1.423,1.423,0,0,1,.873.3c.224.264.313.264.672-.041.627-.507,1.12-.324,1.7.689a1.626,1.626,0,0,0,.694-.284c1.545-.811,1.321-2.048-.627-3.549-1.859-1.419-2.15-2.332-.4-1.237.537.324,1.68.913,2.553,1.318a9.672,9.672,0,0,1,1.881,1.055,3.658,3.658,0,0,0,.941.629c.784.365,1.388.061,1.165-.568q-.134-.4.336-.791a1.485,1.485,0,0,0,.134-2.008c-.694-.527-.381-.771,1.12-.852a4.389,4.389,0,0,0,1.724-.324,5.385,5.385,0,0,0,.2-3.346.726.726,0,0,1,.336-1.278c.56-.122.582-.182.448-1.034s-.09-.913.672-1.318c.784-.426.806-.466.717-1.419l-.112-.973h.829c1.254,0,1.657-.385,1.612-1.48-.045-.771.022-.973.537-1.338a1.572,1.572,0,0,1,1.993-.1c.56.324.582.3,1.657-.588,1.008-.872,1.12-.913,2.105-.811a2.22,2.22,0,0,0,1.68-.3,5.728,5.728,0,0,1,1.7-.649,8.441,8.441,0,0,0,3.964-1.947,15.38,15.38,0,0,1,2.8-1.663,12.132,12.132,0,0,0,3-1.947,5.73,5.73,0,0,1,2.262-1.44,9.291,9.291,0,0,0,1.948-.913,19.274,19.274,0,0,1,1.993-1.095,4.474,4.474,0,0,0,1.5-1.014,1.145,1.145,0,0,1,1.142-.527c1.769,0,5.061-1.7,4.748-2.474-.112-.3-.2-.284-2.15.142a6.5,6.5,0,0,1-1.5.243,8.171,8.171,0,0,1,1.859-.649c2.329-.69,7.144-2.819,7.323-3.265.157-.385-.358-.568-1.344-.426-.941.142-.829-.1.358-.69,1.7-.872,1.366-1.643-.4-.892-.627.264-1.164.406-1.164.3a.2.2,0,0,1,.2-.2c.358,0,1.366-1.075,1.366-1.44,0-.608-.717-.466-2.172.406a12.361,12.361,0,0,1-3.2,1.3,22.958,22.958,0,0,1-5.285.892c-.067-.061.358-.243.94-.426a9.437,9.437,0,0,0,3.65-2.028c.649-.608.717-.73.381-.852a6.065,6.065,0,0,0-2.217.527c-5.486,1.967-16.392,3.691-25.574,4.056-2.575.1-5.2.3-5.822.426a25.855,25.855,0,0,1-3.605.2c-3.65-.061-5.845.629-11.734,3.691a27.217,27.217,0,0,0-2.844,1.622c-.918.75-1.814,3.346-3.2,9.45a61.667,61.667,0,0,1-2.127,7.239l-1.232,3.285-1.635,1.521c-2.486,2.312-4.053,2.859-5.106,1.845-.448-.446-.56-.791-.672-2.231-.09-1.338-.2-1.785-.582-2.15a19.17,19.17,0,0,1-2.62-5.049,3.578,3.578,0,0,0-.694-1.4,2.429,2.429,0,0,1-.56-1.055,3.065,3.065,0,0,0-1.008-1.784,11.781,11.781,0,0,1-1.344-2.008,16.84,16.84,0,0,0-4.859-5.658,82.694,82.694,0,0,0-17.422-6.692c-4.77-1.156-22.08-6.611-25.283-7.949C623.383-542,622.286-542.206,622.286-541.861Z" transform="translate(-614 542.03)" fill="#d60000"/>
    </g>
    <text id="Alkwasir_travel_tourism_agency" data-name="Alkwasir travel &amp; tourism agency" transform="translate(109 113)" fill="#1c0e0e" font-size="13" font-family="SegoeUI-Bold, Segoe UI" font-weight="700"><tspan x="0" y="0">ALKWASIR TRAVEL &amp; TOURISM AGENCY</tspan></text>
    <text id="الكواسر_للسفر_و_السياحه" data-name="الكواسر للسفر و السياحه" transform="translate(109 92)" fill="#1c0e0e" font-size="18" font-family="SimplifiedArabicFixed, Simplified Arabic Fixed"><tspan x="0" y="0">الكواسر للسفر و السياحه</tspan></text>
  </g>
</svg>
