<svg xmlns="http://www.w3.org/2000/svg" xmlns:xlink="http://www.w3.org/1999/xlink" width="91" height="86" viewBox="0 0 91 86">
  <defs>
    <clipPath id="clip-home_5">
      <rect width="91" height="86"/>
    </clipPath>
  </defs>
  <g id="home_5" data-name="home – 5" clip-path="url(#clip-home_5)">
    <rect width="91" height="86" fill="#fff"/>
    <path id="cancel" d="M45.088,6A39.116,39.116,0,0,0,6,45.088,39.116,39.116,0,0,0,45.088,84.176,39.116,39.116,0,0,0,84.176,45.088,39.116,39.116,0,0,0,45.088,6Zm0,4.044a34.984,34.984,0,0,1,24.8,10.243,34.589,34.589,0,0,1,10.243,24.8,35.074,35.074,0,0,1-59.846,24.8,34.59,34.59,0,0,1-10.243-24.8,34.983,34.983,0,0,1,10.243-24.8A34.59,34.59,0,0,1,45.088,10.044ZM36.032,33.968a1.872,1.872,0,0,0-1.39.607,1.953,1.953,0,0,0,0,2.83l7.616,7.683L34.575,52.7a1.953,1.953,0,0,0,0,2.83,1.953,1.953,0,0,0,2.83,0l7.683-7.616L52.7,55.534a1.953,1.953,0,0,0,2.83,0,1.953,1.953,0,0,0,0-2.83l-7.616-7.616,7.616-7.616a2.1,2.1,0,0,0,.067-2.9,1.953,1.953,0,0,0-2.83,0l-7.683,7.683-7.616-7.683A2.037,2.037,0,0,0,36.032,33.968Z" transform="translate(0 -2)" fill="red"/>
  </g>
</svg>
